<svg xmlns="http://www.w3.org/2000/svg" xmlns:xlink="http://www.w3.org/1999/xlink" viewBox="0 0 150 150" width="150" height="150" preserveAspectRatio="xMidYMid meet" style="width: 100%; height: 100%; transform: translate3d(0px, 0px, 0px); content-visibility: visible;"><defs><clipPath id="__lottie_element_2"><rect width="150" height="150" x="0" y="0"></rect></clipPath></defs><g clip-path="url(#__lottie_element_2)"><g transform="matrix(0.9034668207168579,0,0,0.9034668207168579,75,75)" opacity="0.1" style="display: block;"><g opacity="1" transform="matrix(1,0,0,1,0,0)"><path fill="#9FF1E8" fill-opacity="1" d=" M0,-75 C41.39250183105469,-75 75,-41.39250183105469 75,0 C75,41.39250183105469 41.39250183105469,75 0,75 C-41.39250183105469,75 -75,41.39250183105469 -75,0 C-75,-41.39250183105469 -41.39250183105469,-75 0,-75z"></path></g></g><g transform="matrix(1,0,0,1,49.5,27.860000610351562)" opacity="1" style="display: block;"><g opacity="1" transform="matrix(1,0,0,1,0,0)"><path stroke-linecap="round" stroke-linejoin="round" fill-opacity="0" stroke="#D3DFE5" stroke-opacity="1" stroke-width="9px" d=" M0,41.959999084472656 C0,41.959999084472656 22.40999984741211,64.3499984741211 22.40999984741211,64.3499984741211 C22.40999984741211,64.3499984741211 77.47799682617188,6.4670000076293945 83.15799713134766,0.4959999918937683"></path></g></g><g transform="matrix(1,0,0,1,49.5,27.860000610351562)" opacity="1" style="display: block;"><g opacity="1" transform="matrix(1,0,0,1,0,0)"><path stroke-linecap="round" stroke-linejoin="round" fill-opacity="0" stroke="#00A8AE" stroke-opacity="1" stroke-width="10px" d=" M0,41.959999084472656 C0,41.959999084472656 22.40999984741211,64.3499984741211 22.40999984741211,64.3499984741211 C22.40999984741211,64.3499984741211 62.42100143432617,22.292999267578125 77.7509994506836,6.179999828338623"></path></g></g><g transform="matrix(1,0,0,1,49.5,27.860000610351562)" opacity="1" style="display: block;"><g opacity="1" transform="matrix(1,0,0,1,0,0)"><path stroke-linecap="round" stroke-linejoin="round" fill-opacity="0" stroke="#0ADFC7" stroke-opacity="1" stroke-width="10px" d=" M0,41.959999084472656 C0,41.959999084472656 22.40999984741211,64.3499984741211 22.40999984741211,64.3499984741211 C22.40999984741211,64.3499984741211 48.64099884033203,36.77799987792969 66.76200103759766,17.729999542236328"></path></g></g><g transform="matrix(1,0,0,1,75,75)" opacity="1" style="display: block;"><g opacity="1" transform="matrix(1,0,0,1,0,0)"><path stroke-linecap="round" stroke-linejoin="round" fill-opacity="0" stroke="#D3DFE5" stroke-opacity="1" stroke-width="9px" d=" M49.72800064086914,-5.236999988555908 C49.90800094604492,-3.5160000324249268 50,-1.7690000534057617 50,0 C50,27.594999313354492 27.594999313354492,50 0,50 C-27.594999313354492,50 -50,27.594999313354492 -50,0 C-50,-27.594999313354492 -27.594999313354492,-50 0,-50 C0,-50 0,-50 0,-50 C6.864999771118164,-50 13.40999984741211,-48.612998962402344 19.367000579833984,-46.10499954223633"></path></g></g><g transform="matrix(1,0,0,1,75,75)" opacity="1" style="display: block;"><g opacity="1" transform="matrix(1,0,0,1,0,0)"><path stroke-linecap="round" stroke-linejoin="round" fill-opacity="0" stroke="#00A8AE" stroke-opacity="1" stroke-width="9px" d=" M49.72800064086914,-5.236999988555908 C49.90800094604492,-3.5160000324249268 50,-1.7690000534057617 50,0 C50,27.594999313354492 27.594999313354492,50 0,50 C-27.594999313354492,50 -50,27.594999313354492 -50,0 C-50,-27.594999313354492 -27.594999313354492,-50 0,-50 C0,-50 0,-50 0,-50 C6.864999771118164,-50 13.40999984741211,-48.612998962402344 19.367000579833984,-46.10499954223633"></path></g></g><g transform="matrix(1,0,0,1,75,75)" opacity="1" style="display: block;"><g opacity="1" transform="matrix(1,0,0,1,0,0)"><path stroke-linecap="round" stroke-linejoin="round" fill-opacity="0" stroke="#0ADFC7" stroke-opacity="1" stroke-width="10px" d=" M49.0620002746582,-9.678999900817871 C49.676998138427734,-6.546999931335449 50,-3.311000108718872 50,0 C50,27.594999313354492 27.594999313354492,50 0,50 C-27.594999313354492,50 -50,27.594999313354492 -50,0 C-50,-27.594999313354492 -27.594999313354492,-50 0,-50 C0,-50 0,-50 0,-50 C2.509999990463257,-50 4.9770002365112305,-49.814998626708984 7.388000011444092,-49.457000732421875"></path></g></g></g></svg>